<?xml version="1.0" encoding="UTF-8"?>
<svg id="Layer_1" data-name="Layer 1" xmlns="http://www.w3.org/2000/svg" viewBox="0 0 150 150">
  <defs>
    <style>
      .cls-1 {
        fill: #8c52ff;
      }

      .cls-2 {
        fill: #7f3f98;
      }

      .cls-3 {
        fill: #f7941d;
      }
    </style>
  </defs>
  <g>
    <path class="cls-2" d="M15.88,80.42c.44-.37,1.45.09,3.17,1.19,4.52,2.86,12.89,8.14,16.48,10.41,1.28.83,2.4,1.65,2.38,3.3.03,6.85-.17,18.9-.29,25.02-.2,2.83-2.87,4.9-5.75,3.68-2.81-1.07-5.54-2.87-8.14-4.4-3.51-1.92-7.51-4.01-8.27-8.24-.15-5.51,0-12.35-.05-20.58,0-2.3,0-4.42,0-6.11.07-1.52-.24-3.32.45-4.25l.02-.02Z"/>
    <path class="cls-2" d="M40.96,105.08c3.33,1.27,5.69,2.37,9.37,1.28.69-.2,1.06-.77,1.64-.77.02,1.9-5.1,1.96-5.46,3.5-.13.54.34,1.16.31,1.67-.09,1.68-.02,2.53,0,4.1.05,5.03.17,10.11-.7,15.06-.78,1.45-5.16.11-5.16-.95v-23.9Z"/>
    <path class="cls-2" d="M45.77,85.81l-13.4-10.15c4.78-3.6,11.81,1.07,14.78,5.15l-1.37,5Z"/>
    <path class="cls-2" d="M70.79,74.87c1.25-.22,2.01.53,1.12,1.49-5.4,3.21-10.96,6.18-16.28,9.52-.42.26-6.13,5.06-6.07,2.86,2.66-2.57,5.68-4.7,8.76-6.71,2-1.31,10.79-6.86,12.47-7.15Z"/>
    <path class="cls-2" d="M23.12,76.14c.05-2.11,1.13-1.79,2.6-1.05,3.27,1.64,8.72,5.56,11.78,7.83,2.26,1.67,4.44,3.62,6.56,5.47l-1.13.46-19.8-12.71Z"/>
    <path class="cls-2" d="M40.96,95.79c4.02,1.54,7,1.43,11.01,0-1.31,1.86-3.61,2.88-5.85,3.1l.71.53-.68,3.79c-1.01.52-5.18-.24-5.18-1.4v-6.02Z"/>
    <path class="cls-2" d="M77.08,114.78l-22.55,12.21s.48-22.63.59-30.29c.02-1.55.87-2.97,2.23-3.73l21.31-11.67"/>
    <path class="cls-2" d="M42.35,93.01c-.78-1.21,2.99-2.35,3.95-2.4,1.55-.08,3.68.66,4.63,1.91-2.58,2.18-5.66,1.64-8.57.49Z"/>
  </g>
  <g>
    <path class="cls-3" d="M127.63,30.62c-1.22-1.44-3.93-4.74-5.31-5.69-.29-.2-.36-.47-.86-.33-3.34,5.17-7.32,10-10.95,15.02-6.9,9.55-13.28,19.48-20.22,29-.35,1.25,2.51,6.61,3.12,8.26,1.91,5.16,3.4,10.37,2.14,15.89-.34,1.49-1.99,4.52-1.95,5.57.08,2.21,2.86,9.09,3.6,11.9.48,1.81.62,3.72,1.21,5.5,4.09-4.72,5.36-10.88,4.81-17.02-.49-5.47-3.49-10.54-4.37-15.92-2.92-17.8,7.08-37.85,26.26-40.28,1.36-.17,8.53-.56,8.35,1.45-.03.36-3.13,4.22-3.69,5.28-6.97,13.25,4.23,24.71,6.93,36.98,2.11,9.61.58,18.08-2.86,27.11,1.99-2.35,3.9-5.86,5.21-8.71,11.58-25.13,6.16-53.35-11.42-74Z"/>
    <path class="cls-3" d="M55.41,8.94c2.16,1.71,3.39,4.08,4.97,6.26,5.12-1.36,10.81-1.57,15.86.1.85-.03,2.59-3.49,3.24-4.3,1.4-1.72,3.32-3.02,4.82-4.64-9.66-.45-19.56-.21-28.89,2.57Z"/>
    <path class="cls-3" d="M98.74,38.35l13.08-20.98-9.63-4.82c1.19,7.76-2.58,14.78-8.2,19.83.83,2.42,2.44,4.82,4.75,5.97Z"/>
    <path class="cls-3" d="M48.27,57.35c-.07-.61.43-1.27.1-1.8-.59-.97-5.18-4.2-6.39-5.33-1.84-1.72-7.14-6.95-7.77-9.12-.65-2.27,2.87-2.26,4.5-3.45,1.19-.86,4.13-4.51,3.45-5.85-.16-.31-1.99-1.53-2.58-2.24-2.34-2.78-3.88-6.89-4.3-10.49-.44-.57-.37-.18-.7,0-1.12.57-3.05,2.25-4.11,3.12-13.1,10.76-22.19,27.54-24.89,44.24-2.19,13.54.52,27.64,6.48,39.85l.69-.35v-29.58c0-.91,1.87-.93,2.66-.6,1.52.63,4.22,3.5,5.96,4.7,4.91,3.36,11.69,7.43,16.94,10.23,1.53.82,3.28,1.91,1.79-.76-4.7-2.92-9.23-6.22-13.97-9.07-2.09-1.26-5.18-3.76-7.54-2.95-.32-2.16,3.28-6.49,5.14-6.73,1.97-.25,4.29,2.28,5.35,2.26.31,0,2.77-2.06,4.2-2.32,6.89-1.28,9.87,2.4,14.7,5.77.29.2.34.48.86.34l5.19-12.86c-3.29-1.32-5.36-3.36-5.79-7.01Z"/>
  </g>
  <g>
    <path d="M72.95,51.59c-2.2-1.3-2.2,1.92-2.91,3.29-.29.57-1.24,1.82-1.69,2.27-.36.35-1.39,1.16-1.83,1.44-.62.4-8.02,3.4-3.74,3.86,2.69.29,5.88-1.85,7.58-3.8.93-1.07,4.36-6.01,2.58-7.06Z"/>
    <path d="M79.03,38.81c-4.71.08-4.04,7.22.63,6.79,3.9-.36,3.78-6.86-.63-6.79Z"/>
    <path d="M51.8,45.6c4.24-.38,3.47-7.23-.61-6.83-4.05.4-4.1,7.26.61,6.83Z"/>
    <path d="M55.06,53.48c-.37-.51,1.67-2.08,2.05-2.59,1.82-2.4,2.59-5.09,1.72-8.07l-3.79,6.7-4.65,4.3h-.34c-.28,7.58,5.07,7.95,6.78,8.35l.14-.45c4.2-2.18,3.04-7.88-1.93-8.23ZM54.33,56.54c-.05.08-.71.46-1.42.72-.74.27-1.53.39-1.64-.17-.08-.41.2-.79.63-1.09,1.14-.8,3.33-1,2.43.54Z"/>
  </g>
  <g>
    <path class="cls-1" d="M132.43,82.52l-.03-.09c-3.27-9.57-9.12-18.56-7-28.86.2-2.16,2.6-6.61.54-7.9-1.9-.83-4.04.03-6.49.82-3.4,1.26-6.42,3.11-8.98,5.47-6.33,5.77-9.56,14.57-9.41,23.09.97,17.84,10.13,25.25-.42,43.37-1.26,2.77-1.29,5.9-.69,8.85.29,1.6.53,3.22.69,4.84.35,2.8.06,5.46,1.51,7.01,2.47,2.67,13.6-6.02,15.96-7.95,5.79-4.78,9.94-10.49,12.63-17.51,4.29-9.73,5.24-20.99,1.69-31.13Z"/>
    <path class="cls-1" d="M50.07,53.83h.09s.25,0,.25,0l4.65-4.3,3.79-6.7c.87,2.98.1,5.67-1.72,8.07-.38.51-2.42,2.08-2.05,2.59,4.97.35,6.13,6.05,1.93,8.23l-.14.45-.07.25c2.93,1.17,5.94,1.66,9.11,1.37,6.84-.62,16.65-7.4,22.01-11.7,3.11-2.5,4.73-4.77,7.4-7.39.48-.47,2.95-2.11,3.05-2.27.67-1.16-2.12-1.92-3.02-2.56-5.04-3.63-4.89-12.23-10.87-16.99-9.41-7.49-22.7-7.53-32.32-.35-7,5.23-6.47,15.28-14.63,18.92l12.39,12.37h.17ZM79.03,38.8c4.41-.07,4.53,6.44.63,6.8-4.67.43-5.34-6.72-.63-6.8ZM66.53,58.59c.44-.28,1.47-1.08,1.82-1.44.45-.45,1.39-1.7,1.69-2.27.71-1.36.72-4.59,2.91-3.29,1.78,1.05-1.65,5.99-2.58,7.06-1.7,1.95-4.88,4.09-7.58,3.8-4.29-.46,3.11-3.46,3.74-3.86ZM51.18,38.77c4.08-.4,4.85,6.45.61,6.83-4.71.43-4.66-6.44-.61-6.83Z"/>
    <path class="cls-1" d="M93.59,107.73c-.29-1.05-.59-2.13-.89-3.17-.26-.87-.6-2.12-1.39-2.41l-.05-.02c-1.39-.32-2.69,1.02-4.46,1.97-.58.33-1.2.65-1.77.98-3.25,1.67-2.45,4.44-2.72,7.62-.22,3.03-1.86,5.02-4.6,6.52-4.64,2.7-9.38,5.12-14.13,7.62-3.46,1.78-6.78,3.45-10.23,5.14-1.94.93-3.95,1.83-6.05,2.28-3.75.84-6.37-.04-9.48-2.14-1.53-.93-2.99-1.71-4.44-2.6-1.44-.94-3.21-2.16-4.83-2.95-3.73-1.88-1.81.23-.16,1.65,17.87,15.65,43.98,22.07,66.77,14.82,1.81-.56,2.94-1.25,3.29-3.17.83-6.96-.93-13.9-2.23-21-.79-3.83-1.6-7.4-2.63-11.15Z"/>
    <path class="cls-1" d="M91.19,6.55c-3.4,1.17-6.73,3.33-9.13,6-3.01,3.34-3.84,4.28,1.2,5.85,1.34-4.76,6.76-7.57,11.34-8.24,1.2,3.72,1.69,8.45-.14,12.04-1.19,2.33-4.29,4.02-2.94,6.86.81.54,4.41-3.31,4.95-4.16,2.94-4.55,3.62-13.9,1.27-18.75-.82-1.69-4.99-.15-6.55.39Z"/>
    <path class="cls-1" d="M43.85,28.7l1.59-2.23c-3.7-4.66-5.21-10.65-2.42-16.18,4.58.49,9.35,3.34,11.01,7.76.18.14,3.12-1.36,3.04-2.18-.05-.5-2.82-4-3.38-4.54-1.95-1.86-5.63-3.67-8.18-4.55-1.14-.39-4.49-1.74-5.43-.78-.42.44-1.63,4.27-1.79,5.08-1.2,5.97.37,14.05,5.55,17.61Z"/>
    <path class="cls-1" d="M75.83,95.41c-2.56.29-7.3-.69-9.03,1.64-2.8,3.77,2.36,6.91,5.65,7.32,10.28,1.28,19.81-4.8,20.09-15.62.16-6.45-6.43-21.84-10.02-27.46-.29-.46-.69-.89-1.15-1.19-5.54,4.17-14.54,7.92-21.52,6.31-.86-.2-2.01-1.18-2.73-.72-.91,1.3-1.75,2.67-2.47,4.09-1.24,2.45-4.74,11.71-4.77,14.15,0,.29-.14.84.18.87,1.92-1.42,3.71-2.95,5.71-4.27,2.66-1.74,12.33-8,14.75-8.64,4.47-1.17,2.79,1.55,3.61,2.94.29.5,1.34.5,1.49.74.21.32.08,1.62.37,2.15l-.29.38c-1.7.22-3.25,1.01-4.79,1.75-4.84,2.36-11.04,5.93-15.62,8.8-.49.3-2.28,1.37-2.48,1.65-.31.43-.4,1.23.35,1.04,7.45-3.77,15.03-7.52,22.09-11.96.85-.54,1.38-1.32,2.26-1.87.66-.41,4.37-2.25,4.37-.79v12.9c1.55-.99,2.82-2.83,3.07-4.67.19-1.45-.55-4.05,1.07-4.78,4.18-1.87,1.56,6.36.74,7.96-1.87,3.62-6.91,6.84-10.93,7.3Z"/>
  </g>
</svg>