<?xml version="1.0" encoding="UTF-8"?>
<svg id="Layer_1" data-name="Layer 1" xmlns="http://www.w3.org/2000/svg" viewBox="0 0 500 336.54">
  <defs>
    <style>
      .cls-1 {
        letter-spacing: 0em;
      }

      .cls-2, .cls-3 {
        fill: #8c52ff;
      }

      .cls-4 {
        fill: #7f3f98;
      }

      .cls-5, .cls-6 {
        fill: #f7941d;
      }

      .cls-6 {
        font-family: Mulish-Medium, Mulish;
        font-size: 33.68px;
        font-weight: 500;
      }

      .cls-7 {
        letter-spacing: 0em;
      }

      .cls-8 {
        letter-spacing: -.02em;
      }

      .cls-3 {
        font-family: BubbleboddyNeueTrial-Regular, 'Bubbleboddy Neue Trial';
        font-size: 101.04px;
      }

      .cls-9 {
        letter-spacing: 0em;
      }
    </style>
  </defs>
  <g>
    <g>
      <path class="cls-4" d="M169.17,118.9c.61-.51,2.02.13,4.42,1.66,6.3,3.98,17.97,11.34,22.97,14.52,1.78,1.16,3.35,2.3,3.32,4.6.05,9.54-.23,26.34-.4,34.87-.28,3.94-4.01,6.83-8.02,5.13-3.91-1.49-7.72-4-11.35-6.13-4.9-2.68-10.47-5.59-11.52-11.49-.21-7.69.01-17.22-.07-28.69,0-3.21,0-6.17,0-8.52.09-2.13-.33-4.62.62-5.92l.03-.02Z"/>
      <path class="cls-4" d="M204.12,153.26c4.65,1.77,7.93,3.31,13.06,1.79.96-.29,1.48-1.07,2.29-1.07.03,2.65-7.11,2.73-7.61,4.88-.17.75.47,1.61.43,2.33-.12,2.34-.02,3.53,0,5.71.07,7.01.24,14.09-.98,21-1.09,2.01-7.19.15-7.19-1.32v-33.32Z"/>
      <path class="cls-4" d="M210.83,126.42l-18.68-14.14c6.67-5.02,16.47,1.49,20.6,7.18l-1.91,6.96Z"/>
      <path class="cls-4" d="M245.71,111.16c1.74-.31,2.8.74,1.56,2.07-7.52,4.47-15.28,8.61-22.69,13.27-.58.36-8.54,7.05-8.46,3.99,3.71-3.58,7.91-6.55,12.21-9.36,2.78-1.82,15.04-9.56,17.38-9.97Z"/>
      <path class="cls-4" d="M179.25,112.94c.07-2.94,1.57-2.49,3.62-1.46,4.56,2.28,12.15,7.75,16.41,10.91,3.15,2.33,6.2,5.04,9.14,7.63l-1.58.64-27.6-17.71Z"/>
      <path class="cls-4" d="M204.12,140.32c5.6,2.15,9.76,2,15.34,0-1.82,2.59-5.03,4.01-8.15,4.32l.98.74-.95,5.28c-1.41.72-7.22-.33-7.22-1.95v-8.39Z"/>
      <path class="cls-4" d="M254.48,166.79l-31.43,17.02s.67-31.54.82-42.21c.03-2.17,1.21-4.15,3.11-5.2l29.7-16.27"/>
      <path class="cls-4" d="M206.07,136.45c-1.09-1.68,4.16-3.27,5.5-3.34,2.16-.12,5.13.92,6.45,2.66-3.6,3.04-7.89,2.28-11.95.69Z"/>
    </g>
    <g>
      <path class="cls-5" d="M324.92,49.48c-1.7-2-5.48-6.61-7.41-7.93-.4-.28-.5-.66-1.2-.47-4.66,7.21-10.2,13.94-15.26,20.94-9.61,13.31-18.51,27.15-28.18,40.42-.48,1.75,3.5,9.22,4.35,11.52,2.66,7.19,4.74,14.45,2.98,22.14-.47,2.07-2.78,6.31-2.72,7.77.12,3.09,3.99,12.67,5.02,16.59.66,2.52.87,5.18,1.68,7.67,5.69-6.58,7.47-15.17,6.7-23.72-.69-7.63-4.86-14.69-6.1-22.19-4.07-24.81,9.87-52.76,36.6-56.15,1.89-.24,11.89-.78,11.64,2.02-.04.5-4.36,5.89-5.14,7.36-9.72,18.46,5.9,34.44,9.65,51.54,2.94,13.4.81,25.19-3.98,37.79,2.77-3.27,5.44-8.17,7.27-12.14,16.14-35.02,8.59-74.36-15.92-103.14Z"/>
      <path class="cls-5" d="M224.26,19.26c3.01,2.38,4.72,5.69,6.92,8.73,7.13-1.9,15.07-2.19,22.11.13,1.18-.04,3.61-4.87,4.52-5.99,1.96-2.39,4.62-4.21,6.71-6.47-13.47-.62-27.26-.3-40.27,3.59Z"/>
      <path class="cls-5" d="M284.66,60.26l18.23-29.24-13.42-6.72c1.65,10.81-3.59,20.6-11.43,27.63,1.15,3.37,3.4,6.71,6.62,8.32Z"/>
      <path class="cls-5" d="M214.31,86.74c-.1-.85.6-1.77.15-2.5-.83-1.35-7.23-5.86-8.9-7.43-2.56-2.4-9.96-9.68-10.83-12.71-.91-3.17,4-3.15,6.28-4.8,1.65-1.2,5.76-6.29,4.81-8.15-.22-.44-2.77-2.14-3.6-3.13-3.26-3.88-5.41-9.61-6-14.62-.62-.79-.51-.25-.98-.01-1.57.79-4.25,3.13-5.73,4.35-18.26,15-30.93,38.39-34.69,61.67-3.05,18.87.72,38.53,9.03,55.54l.96-.49v-41.23c0-1.27,2.61-1.29,3.71-.83,2.12.88,5.89,4.88,8.31,6.55,6.84,4.68,16.29,10.35,23.61,14.27,2.14,1.14,4.58,2.66,2.5-1.06-6.56-4.07-12.87-8.67-19.47-12.65-2.92-1.76-7.22-5.24-10.5-4.12-.44-3.01,4.58-9.05,7.17-9.38,2.74-.35,5.97,3.18,7.46,3.15.43-.01,3.87-2.87,5.85-3.24,9.61-1.78,13.76,3.34,20.5,8.04.41.28.48.66,1.2.47l7.24-17.92c-4.59-1.84-7.46-4.68-8.07-9.77Z"/>
    </g>
    <g>
      <path d="M248.72,78.71c-3.06-1.81-3.07,2.68-4.06,4.59-.41.79-1.73,2.54-2.35,3.16-.5.49-1.94,1.62-2.55,2.01-.87.56-11.18,4.74-5.21,5.38,3.75.4,8.2-2.58,10.57-5.3,1.3-1.5,6.08-8.37,3.6-9.84Z"/>
      <path d="M257.18,60.89c-6.56.1-5.63,10.06.88,9.47,5.43-.49,5.26-9.57-.88-9.47Z"/>
      <path d="M219.23,70.36c5.9-.54,4.83-10.08-.85-9.53-5.65.55-5.71,10.12.85,9.53Z"/>
      <path d="M223.78,81.35c-.51-.71,2.33-2.9,2.86-3.61,2.54-3.35,3.61-7.09,2.4-11.25l-5.28,9.33-6.48,6h-.47c-.38,10.56,7.07,11.07,9.45,11.64l.19-.63c5.85-3.04,4.24-10.98-2.69-11.48ZM222.76,85.61c-.06.11-.99.65-1.97,1-1.04.37-2.13.54-2.29-.24-.12-.57.28-1.11.88-1.52,1.59-1.12,4.64-1.4,3.38.76Z"/>
    </g>
    <g>
      <path class="cls-2" d="M331.63,121.83l-.04-.13c-4.56-13.34-12.71-25.87-9.75-40.23.28-3.01,3.62-9.21.75-11.01-2.64-1.16-5.63.05-9.05,1.15-4.74,1.75-8.94,4.34-12.51,7.62-8.82,8.04-13.33,20.3-13.11,32.18,1.35,24.86,14.11,35.19-.59,60.46-1.76,3.86-1.79,8.22-.97,12.34.4,2.23.74,4.49.96,6.75.49,3.9.08,7.62,2.1,9.77,3.45,3.73,18.95-8.39,22.25-11.08,8.07-6.66,13.86-14.62,17.6-24.41,5.98-13.56,7.31-29.25,2.36-43.39Z"/>
      <path class="cls-2" d="M216.83,81.83h.12s.35,0,.35,0l6.48-6,5.28-9.33c1.21,4.16.13,7.9-2.4,11.25-.53.7-3.38,2.9-2.86,3.61,6.93.49,8.54,8.44,2.69,11.48l-.19.63-.1.35c4.09,1.63,8.28,2.32,12.69,1.92,9.53-.87,23.21-10.32,30.68-16.31,4.34-3.48,6.59-6.65,10.31-10.3.67-.66,4.12-2.94,4.25-3.17.93-1.62-2.95-2.67-4.21-3.57-7.03-5.07-6.82-17.05-15.15-23.68-13.12-10.45-31.65-10.5-45.05-.49-9.75,7.3-9.01,21.3-20.39,26.37l17.27,17.25h.23ZM257.18,60.89c6.14-.1,6.31,8.98.88,9.47-6.51.6-7.44-9.36-.88-9.47ZM239.76,88.46c.61-.39,2.05-1.51,2.54-2,.63-.63,1.94-2.38,2.35-3.16.99-1.9,1-6.4,4.06-4.59,2.48,1.47-2.3,8.35-3.6,9.84-2.36,2.72-6.81,5.71-10.56,5.3-5.98-.65,4.34-4.82,5.21-5.39ZM218.38,60.84c5.69-.56,6.76,8.99.85,9.52-6.56.6-6.49-8.97-.85-9.52Z"/>
      <path class="cls-2" d="M277.48,156.97c-.4-1.46-.82-2.97-1.23-4.42-.36-1.21-.83-2.96-1.93-3.36l-.07-.02c-1.94-.44-3.74,1.42-6.21,2.74-.81.47-1.68.91-2.47,1.37-4.53,2.32-3.41,6.19-3.79,10.63-.31,4.23-2.59,6.99-6.41,9.09-6.47,3.77-13.08,7.14-19.69,10.62-4.82,2.48-9.45,4.8-14.26,7.16-2.71,1.3-5.51,2.55-8.43,3.17-5.23,1.18-8.88-.05-13.22-2.98-2.13-1.3-4.16-2.38-6.18-3.62-2-1.32-4.47-3.02-6.74-4.11-5.21-2.62-2.53.33-.23,2.3,24.91,21.81,61.3,30.76,93.07,20.65,2.52-.79,4.1-1.74,4.59-4.42,1.15-9.7-1.3-19.38-3.11-29.27-1.1-5.34-2.23-10.32-3.67-15.54Z"/>
      <path class="cls-2" d="M274.14,15.93c-4.74,1.63-9.38,4.65-12.73,8.36-4.2,4.66-5.36,5.97,1.68,8.16,1.87-6.63,9.42-10.56,15.81-11.49,1.67,5.19,2.36,11.78-.19,16.79-1.66,3.25-5.98,5.61-4.09,9.56,1.13.76,6.15-4.62,6.9-5.79,4.09-6.35,5.05-19.37,1.76-26.13-1.14-2.35-6.95-.21-9.13.54Z"/>
      <path class="cls-2" d="M208.15,46.81l2.22-3.1c-5.16-6.49-7.26-14.84-3.37-22.56,6.39.68,13.03,4.66,15.35,10.82.25.19,4.35-1.9,4.24-3.03-.07-.69-3.93-5.58-4.72-6.33-2.71-2.59-7.84-5.11-11.4-6.34-1.59-.55-6.26-2.43-7.56-1.09-.59.61-2.27,5.95-2.5,7.08-1.67,8.32.51,19.58,7.74,24.55Z"/>
      <path class="cls-2" d="M252.73,139.79c-3.57.41-10.18-.96-12.58,2.28-3.9,5.25,3.3,9.63,7.88,10.2,14.33,1.78,27.62-6.69,28-21.78.23-8.99-8.96-30.44-13.97-38.28-.41-.64-.96-1.24-1.6-1.66-7.73,5.82-20.27,11.04-29.99,8.8-1.2-.28-2.8-1.64-3.81-1-1.27,1.82-2.44,3.72-3.44,5.7-1.73,3.41-6.61,16.32-6.65,19.72,0,.4-.19,1.16.25,1.21,2.67-1.98,5.17-4.12,7.95-5.95,3.7-2.43,17.19-11.15,20.56-12.04,6.23-1.64,3.89,2.16,5.04,4.1.41.69,1.86.7,2.08,1.04.29.45.12,2.25.51,2.99l-.41.52c-2.38.31-4.53,1.4-6.67,2.44-6.75,3.28-15.38,8.26-21.78,12.26-.68.42-3.18,1.91-3.46,2.29-.43.6-.56,1.71.49,1.45,10.38-5.26,20.95-10.48,30.8-16.67,1.19-.75,1.93-1.84,3.15-2.6.92-.57,6.09-3.14,6.09-1.1v17.98c2.17-1.38,3.93-3.94,4.27-6.51.27-2.02-.77-5.65,1.49-6.66,5.82-2.61,2.18,8.87,1.03,11.1-2.6,5.04-9.64,9.53-15.24,10.17Z"/>
    </g>
  </g>
  <g>
    <text class="cls-3" transform="translate(10.5 288.18)"><tspan x="0" y="0">Bo</tspan><tspan class="cls-8" x="115.48" y="0">o</tspan><tspan x="170.04" y="0">xClash</tspan></text>
    <text class="cls-6" transform="translate(77.44 320.52)"><tspan class="cls-7" x="0" y="0">L</tspan><tspan x="18.32" y="0">earn . Pl</tspan><tspan class="cls-9" x="145.22" y="0">a</tspan><tspan class="cls-1" x="165.43" y="0">y . Engange</tspan></text>
  </g>
</svg>